<svg width="17" height="16" viewBox="0 0 17 16" fill="none" xmlns="http://www.w3.org/2000/svg">
<path d="M1.90472 14.6667H15.2381" stroke="currentColor" stroke-width="1.5" stroke-linecap="round" stroke-linejoin="round"/>
<path d="M2.64471 14.6667L2.64471 8.66675C2.64471 7.56008 3.63805 6.66675 4.86471 6.66675L12.2714 6.66675C13.498 6.66675 14.4914 7.56008 14.4914 8.66675V14.6667" stroke="currentColor" stroke-width="1.5" stroke-linecap="round" stroke-linejoin="round"/>
<path d="M4.27808 6.66659V4.77992C4.27808 3.97992 4.99808 3.33325 5.89141 3.33325L11.2581 3.33325C12.1447 3.33325 12.8647 3.97992 12.8647 4.77992V6.66659" stroke="currentColor" stroke-width="1.5" stroke-linecap="round" stroke-linejoin="round"/>
<path d="M2.92474 9.32007L3.17141 9.32674C3.66474 9.3334 4.05808 9.7334 4.05808 10.2267V10.4467C4.05808 10.9401 4.45808 11.3467 4.95808 11.3467C5.45141 11.3467 5.85808 10.9467 5.85808 10.4467V10.2401C5.85808 9.74674 6.25808 9.34007 6.75808 9.34007C7.25141 9.34007 7.65808 9.74007 7.65808 10.2401V10.4467C7.65808 10.9401 8.05808 11.3467 8.55808 11.3467C9.05141 11.3467 9.45808 10.9467 9.45808 10.4467V10.2401C9.45808 9.74674 9.85808 9.34007 10.3581 9.34007C10.8514 9.34007 11.2581 9.74007 11.2581 10.2401V10.4467C11.2581 10.9401 11.6581 11.3467 12.1581 11.3467C12.6514 11.3467 13.0581 10.9467 13.0581 10.4467V10.2401C13.0581 9.74674 13.4581 9.34007 13.9581 9.34007H14.2581" stroke="currentColor" stroke-width="1.5" stroke-linecap="round" stroke-linejoin="round"/>
<path d="M5.90472 3.33333V2" stroke="currentColor" stroke-width="1.5" stroke-linecap="round" stroke-linejoin="round"/>
<path d="M11.2381 3.33333V2" stroke="currentColor" stroke-width="1.5" stroke-linecap="round" stroke-linejoin="round"/>
<path d="M8.57141 3.33325V1.33325" stroke="currentColor" stroke-width="1.5" stroke-linecap="round" stroke-linejoin="round"/>
</svg>
