<svg width="16" height="17" viewBox="0 0 16 17" fill="none" xmlns="http://www.w3.org/2000/svg">
<path d="M5.33337 1.3335V3.3335" stroke="currentColor" stroke-width="1.5" stroke-miterlimit="10" stroke-linecap="round" stroke-linejoin="round"/>
<path d="M10.6666 1.3335V3.3335" stroke="currentColor" stroke-width="1.5" stroke-miterlimit="10" stroke-linecap="round" stroke-linejoin="round"/>
<path d="M2.33337 6.06006L13.6667 6.06006" stroke="currentColor" stroke-width="1.5" stroke-miterlimit="10" stroke-linecap="round" stroke-linejoin="round"/>
<path d="M14.6667 12.6667C14.6667 13.1667 14.5267 13.64 14.28 14.04C13.82 14.8133 12.9734 15.3333 12 15.3333C11.3267 15.3333 10.7134 15.0867 10.2467 14.6667C10.04 14.4933 9.86004 14.28 9.72004 14.04C9.47338 13.64 9.33337 13.1667 9.33337 12.6667C9.33337 11.1933 10.5267 10 12 10C12.8 10 13.5134 10.3533 14 10.9067C14.4134 11.38 14.6667 11.9933 14.6667 12.6667Z" stroke="currentColor" stroke-width="1.5" stroke-miterlimit="10" stroke-linecap="round" stroke-linejoin="round"/>
<path d="M10.9601 12.6665L11.6201 13.3265L13.0401 12.0132" stroke="currentColor" stroke-width="1.5" stroke-linecap="round" stroke-linejoin="round"/>
<path d="M14 5.66683V10.9068C13.5133 10.3535 12.8 10.0002 12 10.0002C10.5267 10.0002 9.33333 11.1935 9.33333 12.6668C9.33333 13.1668 9.47333 13.6402 9.72 14.0402C9.86 14.2802 10.04 14.4935 10.2467 14.6668H5.33333C3 14.6668 2 13.3335 2 11.3335L2 5.66683C2 3.66683 3 2.3335 5.33333 2.3335L10.6667 2.3335C13 2.3335 14 3.66683 14 5.66683Z" stroke="currentColor" stroke-width="1.5" stroke-miterlimit="10" stroke-linecap="round" stroke-linejoin="round"/>
<path d="M7.99703 9.13314H8.00302" stroke="currentColor" stroke-width="2" stroke-linecap="round" stroke-linejoin="round"/>
<path d="M5.5295 9.13314H5.53549" stroke="currentColor" stroke-width="2" stroke-linecap="round" stroke-linejoin="round"/>
<path d="M5.5295 11.1331H5.53549" stroke="currentColor" stroke-width="2" stroke-linecap="round" stroke-linejoin="round"/>
</svg>
