<svg width="20" height="21" viewBox="0 0 20 21" fill="none" xmlns="http://www.w3.org/2000/svg">
<path d="M14.5417 19.0165C13.6 19.0165 12.6083 18.7915 11.5833 18.3582C10.5833 17.9332 9.575 17.3499 8.59166 16.6415C7.61666 15.9249 6.675 15.1249 5.78333 14.2499C4.9 13.3582 4.1 12.4165 3.39166 11.4499C2.675 10.4499 2.1 9.44985 1.69166 8.48319C1.25833 7.44985 1.04166 6.44985 1.04166 5.50819C1.04166 4.85819 1.15833 4.24152 1.38333 3.66652C1.61666 3.07485 1.99166 2.52485 2.5 2.04985C3.14166 1.41652 3.875 1.09985 4.65833 1.09985C4.98333 1.09985 5.31666 1.17485 5.6 1.30819C5.925 1.45819 6.2 1.68319 6.4 1.98319L8.33333 4.70819C8.50833 4.94985 8.64166 5.18319 8.73333 5.41652C8.84166 5.66652 8.9 5.91652 8.9 6.15819C8.9 6.47485 8.80833 6.78319 8.63333 7.07485C8.50833 7.29985 8.31666 7.54152 8.075 7.78319L7.50833 8.37485C7.51666 8.39985 7.525 8.41652 7.53333 8.43319C7.63333 8.60819 7.83333 8.90819 8.21666 9.35819C8.625 9.82485 9.00833 10.2499 9.39166 10.6415C9.88333 11.1249 10.2917 11.5082 10.675 11.8249C11.15 12.2249 11.4583 12.4249 11.6417 12.5165L11.625 12.5582L12.2333 11.9582C12.4917 11.6999 12.7417 11.5082 12.9833 11.3832C13.4417 11.0999 14.025 11.0499 14.6083 11.2915C14.825 11.3832 15.0583 11.5082 15.3083 11.6832L18.075 13.6499C18.3833 13.8582 18.6083 14.1249 18.7417 14.4415C18.8667 14.7582 18.925 15.0499 18.925 15.3415C18.925 15.7415 18.8333 16.1415 18.6583 16.5165C18.4833 16.8915 18.2667 17.2165 17.9917 17.5165C17.5167 18.0415 17 18.4165 16.4 18.6582C15.825 18.8915 15.2 19.0165 14.5417 19.0165ZM4.65833 2.34985C4.2 2.34985 3.775 2.54985 3.36666 2.94985C2.98333 3.30819 2.71666 3.69985 2.55 4.12485C2.375 4.55819 2.29166 5.01652 2.29166 5.50819C2.29166 6.28319 2.475 7.12485 2.84166 7.99152C3.21666 8.87485 3.74166 9.79152 4.40833 10.7082C5.075 11.6249 5.83333 12.5165 6.66666 13.3582C7.5 14.1832 8.4 14.9499 9.325 15.6249C10.225 16.2832 11.15 16.8165 12.0667 17.1999C13.4917 17.8082 14.825 17.9499 15.925 17.4915C16.35 17.3165 16.725 17.0499 17.0667 16.6665C17.2583 16.4582 17.4083 16.2332 17.5333 15.9665C17.6333 15.7582 17.6833 15.5415 17.6833 15.3249C17.6833 15.1915 17.6583 15.0582 17.5917 14.9082C17.5667 14.8582 17.5167 14.7665 17.3583 14.6582L14.5917 12.6915C14.425 12.5749 14.275 12.4915 14.1333 12.4332C13.95 12.3582 13.875 12.2832 13.5917 12.4582C13.425 12.5415 13.275 12.6665 13.1083 12.8332L12.475 13.4582C12.15 13.7749 11.65 13.8499 11.2667 13.7082L11.0417 13.6082C10.7 13.4249 10.3 13.1415 9.85833 12.7665C9.45833 12.4249 9.025 12.0249 8.5 11.5082C8.09166 11.0915 7.68333 10.6499 7.25833 10.1582C6.86666 9.69985 6.58333 9.30819 6.40833 8.98319L6.30833 8.73319C6.25833 8.54152 6.24166 8.43319 6.24166 8.31652C6.24166 8.01652 6.35 7.74985 6.55833 7.54152L7.18333 6.89152C7.35 6.72485 7.475 6.56652 7.55833 6.42485C7.625 6.31652 7.65 6.22485 7.65 6.14152C7.65 6.07485 7.625 5.97485 7.58333 5.87485C7.525 5.74152 7.43333 5.59152 7.31666 5.43319L5.38333 2.69985C5.3 2.58319 5.2 2.49985 5.075 2.44152C4.94166 2.38319 4.8 2.34985 4.65833 2.34985ZM11.625 12.5665L11.4917 13.1332L11.7167 12.5499C11.675 12.5415 11.6417 12.5499 11.625 12.5665Z" fill="currentColor"/>
</svg>
