<svg xmlns="http://www.w3.org/2000/svg" width="20" height="21" viewBox="0 0 20 21" fill="none">
  <path d="M10 19.0165C5.05833 19.0165 1.04166 14.9999 1.04166 10.0582C1.04166 5.11652 5.05833 1.09985 10 1.09985C14.9417 1.09985 18.9583 5.11652 18.9583 10.0582C18.9583 14.9999 14.9417 19.0165 10 19.0165ZM10 2.34985C5.75 2.34985 2.29166 5.80819 2.29166 10.0582C2.29166 14.3082 5.75 17.7665 10 17.7665C14.25 17.7665 17.7083 14.3082 17.7083 10.0582C17.7083 5.80819 14.25 2.34985 10 2.34985Z" fill="#1D1F1D"/>
  <path d="M7.5 18.1831H6.66666C6.325 18.1831 6.04166 17.8998 6.04166 17.5581C6.04166 17.2164 6.30833 16.9414 6.65 16.9331C5.34166 12.4664 5.34166 7.64977 6.65 3.18311C6.30833 3.17477 6.04166 2.89977 6.04166 2.55811C6.04166 2.21644 6.325 1.93311 6.66666 1.93311L7.5 1.93311C7.7 1.93311 7.89166 2.03311 8.00833 2.19144C8.125 2.35811 8.15833 2.56644 8.09166 2.75811C6.525 7.46644 6.525 12.6498 8.09166 17.3664C8.15833 17.5581 8.125 17.7664 8.00833 17.9331C7.89166 18.0831 7.7 18.1831 7.5 18.1831Z" fill="#1D1F1D"/>
  <path d="M12.5 18.1831C12.4333 18.1831 12.3667 18.1748 12.3 18.1498C11.975 18.0414 11.7917 17.6831 11.9083 17.3581C13.475 12.6498 13.475 7.46643 11.9083 2.74976C11.8 2.42476 11.975 2.06643 12.3 1.95809C12.6333 1.84976 12.9833 2.02476 13.0917 2.34976C14.75 7.31643 14.75 12.7831 13.0917 17.7414C13.0083 18.0164 12.7583 18.1831 12.5 18.1831Z" fill="#1D1F1D"/>
  <path d="M10 14.3914C7.675 14.3914 5.35833 14.0664 3.125 13.408C3.11667 13.7414 2.84167 14.0164 2.5 14.0164C2.15833 14.0164 1.875 13.733 1.875 13.3914V12.558C1.875 12.358 1.975 12.1664 2.13333 12.0497C2.3 11.933 2.50833 11.8997 2.7 11.9664C7.40833 13.533 12.6 13.533 17.3083 11.9664C17.5 11.8997 17.7083 11.933 17.875 12.0497C18.0417 12.1664 18.1333 12.358 18.1333 12.558V13.3914C18.1333 13.733 17.85 14.0164 17.5083 14.0164C17.1667 14.0164 16.8917 13.7497 16.8833 13.408C14.6417 14.0664 12.325 14.3914 10 14.3914Z" fill="currentColor"/>
  <path d="M17.5 8.18307C17.4333 8.18307 17.3667 8.17474 17.3 8.14974C12.5917 6.58307 7.4 6.58307 2.69167 8.14974C2.35833 8.25807 2.00833 8.08307 1.9 7.75807C1.8 7.42474 1.975 7.07474 2.3 6.96641C7.26667 5.30807 12.7333 5.30807 17.6917 6.96641C18.0167 7.07474 18.2 7.43307 18.0833 7.75807C18.0083 8.01641 17.7583 8.18307 17.5 8.18307Z" fill="currentColor"/>
</svg>