<svg xmlns="http://www.w3.org/2000/svg" width="24" height="25" viewBox="0 0 24 25" fill="none">
  <path d="M1.25 15.5291V9.52905C1.25 4.09905 3.57 1.77905 9 1.77905H15C20.43 1.77905 22.75 4.09905 22.75 9.52905V15.5291C22.75 20.9591 20.43 23.2791 15 23.2791H9C3.57 23.2791 1.25 20.9591 1.25 15.5291ZM21.25 9.52905C21.25 4.91905 19.61 3.27905 15 3.27905H9C4.39 3.27905 2.75 4.91905 2.75 9.52905V15.5291C2.75 20.1391 4.39 21.7791 9 21.7791H15C19.61 21.7791 21.25 20.1391 21.25 15.5291V9.52905Z" fill="#1D1F1D"/>
  <path d="M8.73999 12.529C8.73999 12.339 8.80999 12.149 8.95999 11.999L11.96 8.99899C12.25 8.70899 12.73 8.70899 13.02 8.99899C13.31 9.28899 13.31 9.76899 13.02 10.059L10.55 12.529L13.02 14.999C13.31 15.289 13.31 15.769 13.02 16.059C12.73 16.349 12.25 16.349 11.96 16.059L8.95999 13.059C8.80999 12.909 8.73999 12.719 8.73999 12.529Z" fill="#1D1F1D"/>
  <path d="M8.73999 12.5291C8.73999 12.1191 9.07999 11.7791 9.48999 11.7791H17.49C17.9 11.7791 18.24 12.1191 18.24 12.5291C18.24 12.9391 17.9 13.2791 17.49 13.2791H9.48999C9.06999 13.2791 8.73999 12.9391 8.73999 12.5291Z" fill="#1D1F1D"/>
  <path d="M5.76997 12.529C5.76997 10.419 6.10996 8.299 6.77996 6.289C6.90996 5.899 7.33996 5.689 7.72996 5.819C8.11996 5.949 8.33996 6.36899 8.19996 6.76899C6.95996 10.489 6.95996 14.579 8.19996 18.299C8.32996 18.689 8.11996 19.119 7.72996 19.249C7.33996 19.379 6.90996 19.169 6.77996 18.779C6.09996 16.759 5.76997 14.639 5.76997 12.529Z" fill="#1D1F1D"/>
</svg>