<svg xmlns="http://www.w3.org/2000/svg" width="20" height="21" viewBox="0 0 20 21" fill="none">
  <path d="M16.475 11.5165H13.1083C11.4333 11.5165 10.625 10.7415 10.625 9.14152V3.47485C10.625 1.87485 11.4417 1.09985 13.1083 1.09985L16.475 1.09985C18.15 1.09985 18.9583 1.87485 18.9583 3.47485V9.14152C18.9583 10.7415 18.1417 11.5165 16.475 11.5165ZM13.1083 2.34985C12.05 2.34985 11.875 2.63319 11.875 3.47485V9.14152C11.875 9.98319 12.05 10.2665 13.1083 10.2665H16.475C17.5333 10.2665 17.7083 9.98319 17.7083 9.14152V3.47485C17.7083 2.63319 17.5333 2.34985 16.475 2.34985L13.1083 2.34985Z" fill="currentColor"/>
  <path d="M16.475 19.0164H13.1083C11.4333 19.0164 10.625 18.2414 10.625 16.6414V15.1414C10.625 13.5414 11.4417 12.7664 13.1083 12.7664H16.475C18.15 12.7664 18.9583 13.5414 18.9583 15.1414V16.6414C18.9583 18.2414 18.1417 19.0164 16.475 19.0164ZM13.1083 14.0164C12.05 14.0164 11.875 14.2997 11.875 15.1414V16.6414C11.875 17.483 12.05 17.7664 13.1083 17.7664H16.475C17.5333 17.7664 17.7083 17.483 17.7083 16.6414V15.1414C17.7083 14.2997 17.5333 14.0164 16.475 14.0164H13.1083Z" fill="currentColor"/>
  <path d="M6.89166 19.0165H3.525C1.85 19.0165 1.04166 18.2415 1.04166 16.6415L1.04166 10.9749C1.04166 9.37485 1.85833 8.59985 3.525 8.59985H6.89166C8.56666 8.59985 9.375 9.37485 9.375 10.9749V16.6415C9.375 18.2415 8.55833 19.0165 6.89166 19.0165ZM3.525 9.84985C2.46666 9.84985 2.29166 10.1332 2.29166 10.9749L2.29166 16.6415C2.29166 17.4832 2.46666 17.7665 3.525 17.7665H6.89166C7.95 17.7665 8.125 17.4832 8.125 16.6415V10.9749C8.125 10.1332 7.95 9.84985 6.89166 9.84985H3.525Z" fill="currentColor"/>
  <path d="M6.89166 7.34985H3.525C1.85 7.34985 1.04166 6.57485 1.04166 4.97485V3.47485C1.04166 1.87485 1.85833 1.09985 3.525 1.09985L6.89166 1.09985C8.56666 1.09985 9.375 1.87485 9.375 3.47485V4.97485C9.375 6.57485 8.55833 7.34985 6.89166 7.34985ZM3.525 2.34985C2.46666 2.34985 2.29166 2.63319 2.29166 3.47485V4.97485C2.29166 5.81652 2.46666 6.09985 3.525 6.09985H6.89166C7.95 6.09985 8.125 5.81652 8.125 4.97485V3.47485C8.125 2.63319 7.95 2.34985 6.89166 2.34985L3.525 2.34985Z" fill="currentColor"/>
</svg>
