<svg xmlns="http://www.w3.org/2000/svg" width="20" height="21" viewBox="0 0 20 21" fill="none">
  <path d="M10.0083 19.0165C9.48325 19.0165 8.95825 18.8415 8.54992 18.4915L7.23324 17.3581C7.0999 17.2415 6.76658 17.1248 6.59158 17.1248H5.1499C3.91657 17.1248 2.91658 16.1248 2.91658 14.8915V13.4664C2.91658 13.2914 2.79991 12.9664 2.68324 12.8331L1.55824 11.5081C0.874905 10.6998 0.874905 9.42482 1.55824 8.61649L2.68324 7.29152C2.79991 7.15819 2.91658 6.83318 2.91658 6.65818L2.91658 5.23311C2.91658 3.99978 3.91657 2.99983 5.1499 2.99983L6.59158 2.99983C6.76658 2.99983 7.0999 2.87481 7.23324 2.76648L8.54992 1.63315C9.36658 0.933154 10.6416 0.933154 11.4582 1.63315L12.7749 2.76648C12.9082 2.88314 13.2416 2.99983 13.4166 2.99983H14.8332C16.0666 2.99983 17.0666 3.99978 17.0666 5.23311V6.64984C17.0666 6.82484 17.1916 7.15819 17.3082 7.29152L18.4332 8.60815C19.1332 9.42482 19.1332 10.6998 18.4332 11.5165L17.3082 12.8331C17.1916 12.9664 17.0749 13.2998 17.0749 13.4748V14.8915C17.0749 16.1248 16.0749 17.1248 14.8416 17.1248H13.4249C13.2499 17.1248 12.9166 17.2498 12.7832 17.3581L11.4666 18.4915C11.0499 18.8415 10.5249 19.0165 10.0083 19.0165ZM5.1499 4.24149C4.60824 4.24149 4.16658 4.6831 4.16658 5.22477V6.64984C4.16658 7.12484 3.94157 7.73315 3.64157 8.09149L2.51657 9.41646C2.2249 9.75813 2.2249 10.3498 2.51657 10.6915L3.64157 12.0165C3.9499 12.3831 4.17492 12.9914 4.17492 13.4581V14.8832C4.17492 15.4248 4.61658 15.8665 5.15824 15.8665H6.59992C7.08325 15.8665 7.69159 16.0915 8.05825 16.4081L9.37491 17.5415C9.71658 17.8331 10.3166 17.8331 10.6582 17.5415L11.9749 16.4081C12.3416 16.0998 12.9499 15.8665 13.4332 15.8665H14.8499C15.3916 15.8665 15.8332 15.4248 15.8332 14.8832V13.4664C15.8332 12.9831 16.0582 12.3748 16.3749 12.0081L17.4999 10.6915C17.7916 10.3498 17.7916 9.74978 17.4999 9.40812L16.3749 8.09149C16.0666 7.72482 15.8332 7.11649 15.8332 6.63315V5.21643C15.8332 4.67476 15.3916 4.23315 14.8499 4.23315H13.4332C12.9582 4.23315 12.3416 4.00813 11.9749 3.69146L10.6582 2.55814C10.3166 2.26648 9.71658 2.26648 9.37491 2.55814L8.05825 3.69146C7.69159 3.9998 7.08325 4.23315 6.59992 4.23315H5.1499V4.24149Z" fill="currentColor"/>
  <path d="M11.6665 14.1998H10.1831C9.83313 14.1998 9.30812 14.0915 8.99978 13.7831L7.84981 12.8998L8.61646 11.9081L9.8248 12.8415C9.90813 12.8998 10.0581 12.9415 10.1831 12.9415H11.6665C11.8665 12.9415 12.1081 12.7665 12.1498 12.5915L13.0998 9.69977C13.1248 9.62477 13.1248 9.57484 13.1165 9.55817C13.0998 9.53317 13.0415 9.50812 12.9581 9.50812H11.3998C11.0998 9.50812 10.8248 9.38319 10.6248 9.15819C10.4331 8.93319 10.3415 8.63319 10.3831 8.32485L10.5831 7.06651C10.5998 6.99984 10.5498 6.91645 10.4998 6.89978C10.4498 6.89145 10.3748 6.90815 10.3498 6.93315L8.75814 9.29979L7.71647 8.59982L9.31645 6.22484C9.64979 5.72484 10.3498 5.50818 10.9165 5.71652C11.5498 5.92485 11.9581 6.64153 11.8165 7.29153L11.6665 8.24144H12.9581C13.4498 8.24144 13.8831 8.44982 14.1415 8.81649C14.3915 9.17482 14.4498 9.64151 14.2915 10.0832L13.3581 12.9165C13.1831 13.6332 12.4415 14.1998 11.6665 14.1998Z" fill="currentColor"/>
  <path d="M7.41686 13.7748H7.02519C5.80019 13.7748 5.61686 12.9165 5.61686 12.4082V8.59153C5.61686 8.0832 5.80019 7.22485 7.02519 7.22485H7.41686C8.64186 7.22485 8.8252 8.0832 8.8252 8.59153V12.4082C8.8252 12.9165 8.64186 13.7748 7.41686 13.7748ZM6.88354 12.5165C6.91688 12.5248 6.96687 12.5248 7.03354 12.5248H7.4252C7.49187 12.5248 7.54186 12.5248 7.5752 12.5165C7.5752 12.4915 7.58354 12.4582 7.58354 12.4082V8.59153C7.58354 8.54153 7.58353 8.50819 7.5752 8.48319C7.54186 8.47486 7.49187 8.47485 7.4252 8.47485H7.03354C6.96687 8.47485 6.91688 8.47486 6.88354 8.48319C6.88354 8.50819 6.8752 8.54153 6.8752 8.59153V12.4082C6.8752 12.4582 6.87521 12.4915 6.88354 12.5165Z" fill="currentColor"/>
</svg>