<svg xmlns="http://www.w3.org/2000/svg" width="20" height="21" viewBox="0 0 20 21" fill="none">
  <path d="M14.1667 17.7665H5.83333C2.79166 17.7665 1.04166 16.0165 1.04166 12.9749L1.04166 7.14152C1.04166 4.09985 2.79166 2.34985 5.83333 2.34985L14.1667 2.34985C17.2083 2.34985 18.9583 4.09985 18.9583 7.14152V12.9749C18.9583 16.0165 17.2083 17.7665 14.1667 17.7665ZM5.83333 3.59985C3.45 3.59985 2.29166 4.75819 2.29166 7.14152L2.29166 12.9749C2.29166 15.3582 3.45 16.5165 5.83333 16.5165H14.1667C16.55 16.5165 17.7083 15.3582 17.7083 12.9749V7.14152C17.7083 4.75819 16.55 3.59985 14.1667 3.59985L5.83333 3.59985Z" fill="currentColor"/>
  <path d="M9.99982 10.7831C9.29982 10.7831 8.59149 10.5664 8.04982 10.1247L5.44148 8.04142C5.17482 7.82475 5.12482 7.43308 5.34149 7.16641C5.55815 6.89975 5.94982 6.84975 6.21649 7.06642L8.82481 9.14975C9.45815 9.65808 10.5331 9.65808 11.1665 9.14975L13.7748 7.06642C14.0415 6.84975 14.4415 6.89141 14.6498 7.16641C14.8665 7.43308 14.8248 7.83308 14.5498 8.04142L11.9415 10.1247C11.4082 10.5664 10.6998 10.7831 9.99982 10.7831Z" fill="currentColor"/>
</svg>