<svg width="16" height="16" viewBox="0 0 16 16" fill="none" xmlns="http://www.w3.org/2000/svg">
<path d="M0.4 14.6669L0.4 14.6667L0.4 12.1667C0.4 11.9053 0.489654 11.6816 0.669413 11.5025C0.848971 11.3236 1.07242 11.2339 1.3331 11.2333C1.59414 11.2327 1.81807 11.3225 1.99821 11.5026C2.1783 11.6827 2.26784 11.9064 2.26667 12.1669M0.4 14.6669L2.16667 13.7333H2.26667M0.4 14.6669C0.400615 14.9276 0.490232 15.151 0.669166 15.3306C0.848301 15.5103 1.07198 15.6 1.33333 15.6H3.83328M0.4 14.6669L3.83328 15.6M2.26667 12.1669C2.26667 12.167 2.26667 12.1671 2.26667 12.1671L2.16667 12.1667H2.26667V12.1669ZM2.26667 12.1669V13.7333M2.26667 13.7333H3.83333C4.09468 13.7333 4.31857 13.823 4.49821 14.0026C4.67787 14.1823 4.76728 14.406 4.76667 14.6669C4.76605 14.9276 4.67644 15.1512 4.49762 15.3313C4.31849 15.5117 4.09472 15.6011 3.83328 15.6M2.26667 13.7333V13.8333M2.26667 13.8333H3.83333C4.06944 13.8333 4.2675 13.9133 4.4275 14.0733C4.5875 14.2333 4.66722 14.4311 4.66667 14.6667C4.66611 14.9022 4.58611 15.1003 4.42667 15.2608C4.26722 15.4214 4.06944 15.5011 3.83333 15.5M2.26667 13.8333L0.5 14.6667C0.500556 14.9022 0.580556 15.1 0.74 15.26C0.899445 15.42 1.09722 15.5 1.33333 15.5H3.83333M2.26667 13.8333L3.83328 15.6M3.83333 15.5L3.83286 15.6C3.833 15.6 3.83314 15.6 3.83328 15.6M3.83333 15.5V15.6H3.83328M1.3331 0.4L1.33333 0.4L3.83333 0.4C4.09468 0.4 4.31857 0.489646 4.49821 0.669289C4.67787 0.848945 4.76728 1.07263 4.76667 1.33357C4.76605 1.59424 4.67644 1.8179 4.49762 1.99796C4.31844 2.17839 4.09461 2.26784 3.8331 2.26667M1.3331 0.4L2.26667 2.16667V2.26667M1.3331 0.4C1.07242 0.400615 0.848971 0.490232 0.669412 0.669167C0.489654 0.848301 0.4 1.07198 0.4 1.33333V3.83333C0.4 4.09468 0.489654 4.31837 0.669413 4.4975C0.848971 4.67643 1.07242 4.76605 1.3331 4.76667C1.59404 4.76728 1.81772 4.67787 1.99738 4.49821C2.17702 4.31857 2.26667 4.09468 2.26667 3.83333V2.26667M1.3331 0.4L2.16667 2.26667M3.8331 2.26667C3.83302 2.26667 3.83294 2.26667 3.83286 2.26667L3.83333 2.16667V2.26667H3.8331ZM3.8331 2.26667H2.26667M2.26667 2.26667H2.16667M2.16667 2.26667V3.83333C2.16667 4.06944 2.08667 4.2675 1.92667 4.4275C1.76667 4.5875 1.56889 4.66722 1.33333 4.66667C1.09778 4.66611 0.9 4.58611 0.74 4.42667C0.58 4.26722 0.5 4.06944 0.5 3.83333V1.33333C0.5 1.09722 0.58 0.899445 0.74 0.74C0.9 0.580556 1.09778 0.500556 1.33333 0.5L2.16667 2.26667ZM13.7333 13.7333V12.1667C13.7333 11.9053 13.823 11.6816 14.0027 11.5025C14.1823 11.3236 14.4058 11.2339 14.6664 11.2333C14.9275 11.2327 15.1514 11.3225 15.3315 11.5026C15.5116 11.6827 15.6011 11.9063 15.6 12.1667M13.7333 13.7333L15.5 14.6667C15.5 14.9028 15.42 15.1008 15.26 15.2608C15.1 15.4208 14.9022 15.5006 14.6667 15.5V15.6M13.7333 13.7333H12.1667C11.9063 13.7333 11.6828 13.8231 11.5027 14.0025C11.3225 14.1821 11.2327 14.4059 11.2333 14.6669C11.2339 14.9276 11.3236 15.151 11.5025 15.3306C11.6816 15.5103 11.9053 15.6 12.1667 15.6L14.6664 15.6M13.7333 13.7333L14.6664 15.6M15.6 12.1667C15.6 12.1669 15.6 12.167 15.6 12.1671L15.5 12.1667H15.6V12.1667ZM15.6 12.1667V14.6667C15.6 14.928 15.5104 15.1519 15.3307 15.3315C15.1511 15.5111 14.9275 15.6006 14.6667 15.6M14.6667 15.6C14.6666 15.6 14.6665 15.6 14.6664 15.6M14.6667 15.6L14.6664 15.6M13.7333 2.26667H12.1667C11.9053 2.26667 11.6816 2.17701 11.5025 1.99725C11.3236 1.8177 11.2339 1.59425 11.2333 1.33357C11.2327 1.07252 11.3225 0.848797 11.5027 0.669167C11.6828 0.489736 11.9063 0.4 12.1667 0.4H14.6667C14.928 0.4 15.1519 0.489646 15.3315 0.669289C15.5111 0.848891 15.6006 1.07249 15.6 1.33333C15.6 1.33341 15.6 1.33349 15.6 1.33357M13.7333 2.26667L13.8333 3.83333C13.8333 4.06944 13.9133 4.26722 14.0733 4.42667C14.2333 4.58611 14.4311 4.66611 14.6667 4.66667C14.9022 4.66722 15.1 4.5875 15.26 4.4275C15.42 4.2675 15.5 4.06944 15.5 3.83333V1.33333L15.6 1.33357M13.7333 2.26667V3.83333C13.7333 4.09468 13.823 4.31837 14.0027 4.4975C14.1823 4.67643 14.4058 4.76605 14.6664 4.76667C14.9274 4.76728 15.1511 4.67787 15.3307 4.49821C15.5104 4.31857 15.6 4.09468 15.6 3.83333L15.6 1.33357M13.7333 2.26667L15.6 1.33357" fill="black" stroke="black" stroke-width="0.2"/>
</svg>
