<svg width="17" height="16" viewBox="0 0 17 16" fill="none" xmlns="http://www.w3.org/2000/svg">
<path d="M8.85722 14.6666C12.5391 14.6666 15.5239 11.6818 15.5239 7.99992C15.5239 4.31802 12.5391 1.33325 8.85722 1.33325C5.17532 1.33325 2.19055 4.31802 2.19055 7.99992C2.19055 11.6818 5.17532 14.6666 8.85722 14.6666Z" stroke="currentColor" stroke-width="1.5" stroke-linecap="round" stroke-linejoin="round"/>
<path d="M9.0772 11.6333C8.9572 11.6733 8.75053 11.6733 8.63053 11.6333C7.59053 11.28 5.2572 9.79334 5.2572 7.27334C5.2572 6.16 6.15054 5.26001 7.2572 5.26001C7.91054 5.26001 8.49053 5.57334 8.8572 6.06667C9.2172 5.58 9.80386 5.26001 10.4572 5.26001C11.5639 5.26001 12.4572 6.16 12.4572 7.27334C12.4572 9.79334 10.1239 11.28 9.0772 11.6333Z" stroke="currentColor" stroke-width="1.5" stroke-linecap="round" stroke-linejoin="round"/>
</svg>
