<svg width="16" height="16" viewBox="0 0 16 16" fill="none" xmlns="http://www.w3.org/2000/svg">
<path d="M6.33337 9.16657C6.33337 9.81324 6.83338 10.3332 7.44672 10.3332H8.70003C9.23337 10.3332 9.66671 9.87991 9.66671 9.31324C9.66671 8.70658 9.40005 8.48658 9.00671 8.34658L7.00004 7.64658C6.60671 7.50658 6.34005 7.29324 6.34005 6.67991C6.34005 6.11991 6.77337 5.65991 7.3067 5.65991H8.56004C9.17337 5.65991 9.67338 6.17991 9.67338 6.82658" stroke="currentColor" stroke-width="1.5" stroke-linecap="round" stroke-linejoin="round"/>
<path d="M8 5V11" stroke="currentColor" stroke-width="1.5" stroke-linecap="round" stroke-linejoin="round"/>
<path d="M14.6667 7.99992C14.6667 11.6799 11.68 14.6666 8.00004 14.6666C4.32004 14.6666 1.33337 11.6799 1.33337 7.99992C1.33337 4.31992 4.32004 1.33325 8.00004 1.33325" stroke="currentColor" stroke-width="1.5" stroke-linecap="round" stroke-linejoin="round"/>
<path d="M14.6667 3.99992V1.33325L12 1.33325" stroke="currentColor" stroke-width="1.5" stroke-linecap="round" stroke-linejoin="round"/>
<path d="M11.3334 4.66659L14.6667 1.33325" stroke="currentColor" stroke-width="1.5" stroke-linecap="round" stroke-linejoin="round"/>
</svg>
