<svg width="17" height="16" viewBox="0 0 17 16" fill="none" xmlns="http://www.w3.org/2000/svg">
<path d="M14.0474 5.49992V11.9999C14.0474 13.9999 12.8541 14.6666 11.3807 14.6666H6.0474C4.57407 14.6666 3.38074 13.9999 3.38074 11.9999L3.38074 5.49992C3.38074 3.33325 4.57407 2.83325 6.0474 2.83325C6.0474 3.24659 6.21405 3.61992 6.48739 3.89325C6.76072 4.16658 7.13407 4.33325 7.5474 4.33325H9.88074C10.7074 4.33325 11.3807 3.65992 11.3807 2.83325C12.8541 2.83325 14.0474 3.33325 14.0474 5.49992Z" stroke="currentColor" stroke-width="1.5" stroke-linecap="round" stroke-linejoin="round"/>
<path d="M11.3808 2.83325C11.3808 3.65992 10.7075 4.33325 9.88082 4.33325H7.54749C7.13415 4.33325 6.7608 4.16658 6.48747 3.89325C6.21413 3.61992 6.04749 3.24659 6.04749 2.83325C6.04749 2.00659 6.72082 1.33325 7.54749 1.33325L9.88082 1.33325C10.2942 1.33325 10.6675 1.49992 10.9408 1.77325C11.2142 2.04659 11.3808 2.41992 11.3808 2.83325Z" stroke="currentColor" stroke-width="1.5" stroke-linecap="round" stroke-linejoin="round"/>
<path d="M6.04749 8.66675H8.71415" stroke="currentColor" stroke-width="1.5" stroke-linecap="round" stroke-linejoin="round"/>
<path d="M6.04749 11.3333H11.3808" stroke="currentColor" stroke-width="1.5" stroke-linecap="round" stroke-linejoin="round"/>
</svg>
