<svg xmlns="http://www.w3.org/2000/svg" width="20" height="21" viewBox="0 0 20 21" fill="none">
  <path d="M10 5.4248V8.19981" stroke="currentColor" stroke-width="1.5" stroke-miterlimit="10" stroke-linecap="round"/>
  <path d="M10.0167 1.72485C6.95 1.72485 4.46667 4.20819 4.46667 7.27485V9.02485C4.46667 9.59152 4.23333 10.4415 3.94167 10.9249L2.88333 12.6915C2.23333 13.7832 2.68333 14.9999 3.88333 15.3999C7.86667 16.7249 12.175 16.7249 16.1583 15.3999C17.2833 15.0249 17.7667 13.7082 17.1583 12.6915L16.1 10.9249C15.8083 10.4415 15.575 9.58319 15.575 9.02485V7.27485C15.5667 4.22485 13.0667 1.72485 10.0167 1.72485Z" fill="#F9FAF9" stroke="currentColor" stroke-width="1.5" stroke-miterlimit="10" stroke-linecap="round"/>
  <path d="M12.775 15.7415C12.775 17.2665 11.525 18.5165 10 18.5165C9.24167 18.5165 8.54166 18.1998 8.04166 17.6998C7.54166 17.1998 7.225 16.4998 7.225 15.7415" fill="#F9FAF9"/>
  <path d="M12.775 15.7415C12.775 17.2665 11.525 18.5165 10 18.5165C9.24167 18.5165 8.54166 18.1998 8.04166 17.6998C7.54166 17.1998 7.225 16.4998 7.225 15.7415" stroke="currentColor" stroke-width="1.5" stroke-miterlimit="10"/>
</svg>