<svg xmlns="http://www.w3.org/2000/svg" width="20" height="21" viewBox="0 0 20 21" fill="none">
  <path d="M3.32408 12.2751L2.05742 11.0084C1.54076 10.4917 1.54076 9.6417 2.05742 9.12503L3.32408 7.85835C3.54075 7.64168 3.71575 7.21667 3.71575 6.91667L3.71575 5.12499C3.71575 4.39165 4.31575 3.79167 5.04909 3.79167L6.84075 3.79167C7.14075 3.79167 7.56575 3.6167 7.78242 3.40003L9.04908 2.13335C9.56574 1.61668 10.4158 1.61668 10.9324 2.13335L12.1991 3.40003C12.4158 3.6167 12.8407 3.79167 13.1407 3.79167H14.9324C15.6658 3.79167 16.2657 4.39165 16.2657 5.12499V6.91667C16.2657 7.21667 16.4407 7.64168 16.6574 7.85835L17.9241 9.12503C18.4408 9.6417 18.4408 10.4917 17.9241 11.0084L16.6574 12.2751C16.4407 12.4917 16.2657 12.9167 16.2657 13.2167V15.0083C16.2657 15.7416 15.6658 16.3417 14.9324 16.3417H13.1407C12.8407 16.3417 12.4158 16.5167 12.1991 16.7334L10.9324 18C10.4158 18.5167 9.56574 18.5167 9.04908 18L7.78242 16.7334C7.56575 16.5167 7.14075 16.3417 6.84075 16.3417H5.04909C4.31575 16.3417 3.71575 15.7416 3.71575 15.0083V13.2167C3.71575 12.9084 3.54075 12.4834 3.32408 12.2751Z" stroke="currentColor" stroke-width="1.5" stroke-linecap="round" stroke-linejoin="round"/>
  <path d="M7.5 12.5581L12.5 7.55811" stroke="currentColor" stroke-width="1.5" stroke-linecap="round" stroke-linejoin="round"/>
  <path d="M12.0788 12.1415H12.0862" stroke="currentColor" stroke-width="2" stroke-linecap="round" stroke-linejoin="round"/>
  <path d="M7.91209 7.97477H7.91957" stroke="currentColor" stroke-width="2" stroke-linecap="round" stroke-linejoin="round"/>
</svg>