<svg width="16" height="16" viewBox="0 0 16 16" fill="none" xmlns="http://www.w3.org/2000/svg">
<path d="M6.00004 14.6668H10C13.3334 14.6668 14.6667 13.3335 14.6667 10.0002V6.00016C14.6667 2.66683 13.3334 1.3335 10 1.3335L6.00004 1.3335C2.66671 1.3335 1.33337 2.66683 1.33337 6.00016L1.33337 10.0002C1.33337 13.3335 2.66671 14.6668 6.00004 14.6668Z" stroke="currentColor" stroke-width="1.5" stroke-linecap="round" stroke-linejoin="round"/>
<path d="M10.38 12.3334V9.7334" stroke="currentColor" stroke-width="1.5" stroke-miterlimit="10" stroke-linecap="round" stroke-linejoin="round"/>
<path d="M10.38 4.9665V3.6665" stroke="currentColor" stroke-width="1.5" stroke-miterlimit="10" stroke-linecap="round" stroke-linejoin="round"/>
<path d="M10.3799 8.43346C11.3372 8.43346 12.1133 7.65742 12.1133 6.70013C12.1133 5.74284 11.3372 4.9668 10.3799 4.9668C9.42265 4.9668 8.64661 5.74284 8.64661 6.70013C8.64661 7.65742 9.42265 8.43346 10.3799 8.43346Z" stroke="currentColor" stroke-width="1.5" stroke-miterlimit="10" stroke-linecap="round" stroke-linejoin="round"/>
<path d="M5.62 12.3332V11.0332" stroke="currentColor" stroke-width="1.5" stroke-miterlimit="10" stroke-linecap="round" stroke-linejoin="round"/>
<path d="M5.62 6.2665V3.6665" stroke="currentColor" stroke-width="1.5" stroke-miterlimit="10" stroke-linecap="round" stroke-linejoin="round"/>
<path d="M5.62005 11.0336C6.57735 11.0336 7.35338 10.2575 7.35338 9.30023C7.35338 8.34293 6.57735 7.56689 5.62005 7.56689C4.66276 7.56689 3.88672 8.34293 3.88672 9.30023C3.88672 10.2575 4.66276 11.0336 5.62005 11.0336Z" stroke="currentColor" stroke-width="1.5" stroke-miterlimit="10" stroke-linecap="round" stroke-linejoin="round"/>
</svg>
