<svg width="16" height="16" viewBox="0 0 16 16" fill="none" xmlns="http://www.w3.org/2000/svg">
<path d="M13 8.33341C13 7.41341 13.7466 6.66675 14.6666 6.66675V6.00008C14.6666 3.33341 14 2.66675 11.3333 2.66675L4.66665 2.66675C1.99998 2.66675 1.33331 3.33341 1.33331 6.00008V6.33341C2.25331 6.33341 2.99998 7.08008 2.99998 8.00008C2.99998 8.92008 2.25331 9.66675 1.33331 9.66675V10.0001C1.33331 12.6667 1.99998 13.3334 4.66665 13.3334H11.3333C14 13.3334 14.6666 12.6667 14.6666 10.0001C13.7466 10.0001 13 9.25341 13 8.33341Z" stroke="currentColor" stroke-width="1.5" stroke-linecap="round" stroke-linejoin="round"/>
<path d="M6 9.83325L10 5.83325" stroke="currentColor" stroke-width="1.5" stroke-linecap="round" stroke-linejoin="round"/>
<path d="M9.99636 9.83333H10.0023" stroke="currentColor" stroke-width="2" stroke-linecap="round" stroke-linejoin="round"/>
<path d="M5.99636 6.16659H6.00235" stroke="currentColor" stroke-width="2" stroke-linecap="round" stroke-linejoin="round"/>
</svg>
